<mxfile host="Electron" modified="2024-07-18T07:58:20.450Z" agent="Mozilla/5.0 (Windows NT 10.0; Win64; x64) AppleWebKit/537.36 (KHTML, like Gecko) draw.io/21.3.7 Chrome/112.0.5615.204 Electron/24.5.0 Safari/537.36" etag="GQnH4GIdvTTQDJC6TL66" version="21.3.7" type="device">
  <diagram name="Seite-1" id="0pWEvKbX2b3xynGgOori">
    <mxGraphModel dx="1195" dy="823" grid="1" gridSize="10" guides="1" tooltips="1" connect="1" arrows="1" fold="1" page="1" pageScale="1" pageWidth="827" pageHeight="1169" math="0" shadow="0">
      <root>
        <mxCell id="0" />
        <mxCell id="1" parent="0" />
        <mxCell id="5yF9FgKueIalpRAGpH-c-1" value="" style="ellipse;whiteSpace=wrap;html=1;aspect=fixed;strokeWidth=2;" vertex="1" parent="1">
          <mxGeometry x="440" y="440" width="80" height="80" as="geometry" />
        </mxCell>
        <mxCell id="5yF9FgKueIalpRAGpH-c-2" value="" style="ellipse;whiteSpace=wrap;html=1;aspect=fixed;strokeWidth=2;" vertex="1" parent="1">
          <mxGeometry x="730" y="440" width="80" height="80" as="geometry" />
        </mxCell>
        <mxCell id="5yF9FgKueIalpRAGpH-c-3" value="" style="endArrow=classic;html=1;exitX=1;exitY=0;exitDx=0;exitDy=0;entryX=0;entryY=0;entryDx=0;entryDy=0;curved=1;strokeWidth=2;endSize=10;startSize=10;" edge="1" parent="1" source="5yF9FgKueIalpRAGpH-c-1" target="5yF9FgKueIalpRAGpH-c-2">
          <mxGeometry width="50" height="50" relative="1" as="geometry">
            <mxPoint x="700" y="530" as="sourcePoint" />
            <mxPoint x="750" y="480" as="targetPoint" />
            <Array as="points">
              <mxPoint x="630" y="390" />
            </Array>
          </mxGeometry>
        </mxCell>
        <mxCell id="5yF9FgKueIalpRAGpH-c-4" value="" style="endArrow=classic;html=1;exitX=0;exitY=1;exitDx=0;exitDy=0;entryX=1;entryY=1;entryDx=0;entryDy=0;curved=1;strokeWidth=2;endSize=10;startSize=10;" edge="1" parent="1" source="5yF9FgKueIalpRAGpH-c-2" target="5yF9FgKueIalpRAGpH-c-1">
          <mxGeometry width="50" height="50" relative="1" as="geometry">
            <mxPoint x="570" y="462" as="sourcePoint" />
            <mxPoint x="804" y="462" as="targetPoint" />
            <Array as="points">
              <mxPoint x="630" y="580" />
            </Array>
          </mxGeometry>
        </mxCell>
        <mxCell id="5yF9FgKueIalpRAGpH-c-5" value="&lt;font style=&quot;font-size: 16px;&quot;&gt;Fill&lt;br&gt;tank&lt;/font&gt;" style="text;html=1;strokeColor=none;fillColor=none;align=center;verticalAlign=middle;whiteSpace=wrap;rounded=0;" vertex="1" parent="1">
          <mxGeometry x="450" y="460" width="60" height="30" as="geometry" />
        </mxCell>
        <mxCell id="5yF9FgKueIalpRAGpH-c-6" value="&lt;span style=&quot;font-size: 16px;&quot;&gt;Off&lt;/span&gt;" style="text;html=1;strokeColor=none;fillColor=none;align=center;verticalAlign=middle;whiteSpace=wrap;rounded=0;" vertex="1" parent="1">
          <mxGeometry x="740" y="465" width="60" height="30" as="geometry" />
        </mxCell>
        <mxCell id="5yF9FgKueIalpRAGpH-c-7" value="tank load &amp;gt;= 90%&lt;br style=&quot;font-size: 14px;&quot;&gt;&amp;amp;&amp;amp; run time &amp;gt;= min. run time" style="text;html=1;strokeColor=none;fillColor=none;align=center;verticalAlign=middle;whiteSpace=wrap;rounded=0;strokeWidth=1;fontStyle=0;fontSize=14;" vertex="1" parent="1">
          <mxGeometry x="510" y="380" width="250" height="30" as="geometry" />
        </mxCell>
        <mxCell id="5yF9FgKueIalpRAGpH-c-8" value="tank load &amp;lt; 30%" style="text;html=1;strokeColor=none;fillColor=none;align=center;verticalAlign=middle;whiteSpace=wrap;rounded=0;strokeWidth=1;fontStyle=0;fontSize=14;" vertex="1" parent="1">
          <mxGeometry x="550" y="550" width="150" height="30" as="geometry" />
        </mxCell>
        <mxCell id="5yF9FgKueIalpRAGpH-c-9" value="" style="endArrow=classic;html=1;rounded=0;entryX=0.5;entryY=1;entryDx=0;entryDy=0;strokeWidth=2;" edge="1" parent="1" target="5yF9FgKueIalpRAGpH-c-2">
          <mxGeometry width="50" height="50" relative="1" as="geometry">
            <mxPoint x="770" y="590" as="sourcePoint" />
            <mxPoint x="780" y="580" as="targetPoint" />
          </mxGeometry>
        </mxCell>
        <mxCell id="5yF9FgKueIalpRAGpH-c-10" value="start" style="text;html=1;strokeColor=none;fillColor=none;align=center;verticalAlign=middle;whiteSpace=wrap;rounded=0;strokeWidth=1;fontStyle=0;fontSize=14;" vertex="1" parent="1">
          <mxGeometry x="770" y="550" width="50" height="30" as="geometry" />
        </mxCell>
      </root>
    </mxGraphModel>
  </diagram>
</mxfile>
